<?xml version="1.0" standalone="no"?>
<!DOCTYPE svg PUBLIC "-//W3C//DTD SVG 20010904//EN"
 "http://www.w3.org/TR/2001/REC-SVG-20010904/DTD/svg10.dtd">
<svg version="1.0" xmlns="http://www.w3.org/2000/svg"
 width="1920.000000pt" height="1920.000000pt" viewBox="0 0 1920.000000 1920.000000"
 preserveAspectRatio="xMidYMid meet">

<g transform="translate(0.000000,1920.000000) scale(0.100000,-0.100000)"
fill="#000000" stroke="none">
<path d="M8544 17720 c-107 -21 -209 -103 -260 -206 -27 -54 -29 -68 -29 -169
0 -98 3 -116 27 -167 35 -76 104 -148 175 -183 47 -23 76 -30 153 -34 l95 -6
3 -372 2 -371 -37 -6 c-21 -3 -76 -10 -123 -16 -833 -105 -1740 -397 -2490
-800 -1568 -843 -2763 -2183 -3414 -3827 -256 -648 -403 -1267 -483 -2043 -22
-211 -25 -1037 -5 -1255 82 -886 274 -1637 615 -2405 80 -179 177 -374 183
-367 3 3 139 330 303 727 l298 722 -24 77 c-106 342 -198 782 -237 1141 -14
123 -36 389 -36 433 0 14 9 17 53 17 62 0 336 78 375 107 37 26 72 99 72 147
0 50 -33 120 -69 146 -39 27 -328 110 -386 110 l-47 0 7 98 c36 538 116 983
265 1477 185 615 504 1262 879 1787 222 310 390 508 691 809 398 398 753 677
1210 952 782 468 1660 762 2560 856 101 11 357 31 392 31 14 0 17 -9 16 -48 0
-49 63 -295 88 -344 24 -47 79 -81 139 -86 68 -6 113 10 154 52 28 29 40 58
78 193 32 116 42 168 38 196 l-5 39 102 -7 c528 -33 987 -115 1482 -265 90
-27 212 -67 271 -89 l106 -39 755 256 c600 203 752 258 742 268 -44 42 -538
293 -783 397 -685 291 -1260 445 -2063 553 l-42 5 2 372 3 372 96 6 c77 4 107
11 153 33 72 35 137 101 173 174 26 53 28 66 28 177 0 112 -2 124 -27 172 -36
68 -77 114 -136 152 -98 63 -71 61 -1107 60 -517 -1 -959 -5 -981 -9z"/>
<path d="M16530 15961 c-63 -22 -2258 -767 -4878 -1655 -2619 -888 -4785
-1627 -4813 -1643 -165 -89 -220 -331 -112 -490 41 -59 1745 -1902 1798 -1944
63 -49 131 -71 218 -71 69 0 149 27 1712 561 902 308 1641 558 1643 557 2 -2
-301 -710 -674 -1572 -372 -863 -683 -1588 -692 -1612 -22 -67 -13 -193 21
-258 29 -58 -1 -24 1051 -1162 875 -946 809 -887 981 -887 89 0 106 3 156 28
68 33 132 100 164 170 38 84 3937 9539 3947 9572 5 17 9 62 10 100 0 98 -30
175 -96 240 -73 73 -131 98 -236 103 -78 3 -94 0 -200 -37z m220 -271 c11 -11
20 -26 20 -33 0 -6 -886 -2161 -1969 -4787 -1399 -3392 -1976 -4779 -1991
-4789 -14 -9 -27 -11 -39 -5 -24 12 -1761 1891 -1761 1906 0 6 367 861 815
1901 449 1039 814 1891 813 1892 -2 1 -878 -297 -1948 -662 -1464 -500 -1950
-662 -1966 -656 -12 4 -412 430 -889 947 -874 945 -890 965 -858 997 9 9 9717
3306 9741 3308 6 1 21 -8 32 -19z"/>
<path d="M15797 11517 c-163 -397 -297 -728 -297 -735 0 -7 16 -64 35 -128
131 -432 225 -965 251 -1419 l7 -120 -45 3 c-50 4 -308 -66 -369 -100 -109
-61 -112 -241 -6 -307 49 -30 307 -101 368 -101 l52 0 -7 -117 c-146 -2471
-1749 -4637 -4076 -5506 -579 -217 -1211 -350 -1812 -383 l-127 -7 5 35 c7 43
-68 324 -100 371 -27 40 -98 77 -150 77 -51 0 -120 -33 -147 -71 -28 -40 -101
-302 -100 -361 l0 -48 -52 0 c-69 0 -363 26 -512 46 -398 51 -811 147 -1185
276 -96 33 -184 62 -196 65 -19 4 -1497 -489 -1516 -506 -9 -8 224 -138 437
-244 1578 -785 3411 -973 5135 -526 1261 327 2425 995 3360 1929 1130 1128
1866 2593 2090 4160 147 1030 81 2061 -195 3051 -96 343 -226 704 -368 1021
-63 139 -174 368 -180 368 -1 0 -136 -325 -300 -723z"/>
<path d="M6172 11779 c-24 -12 -54 -38 -67 -58 -27 -41 -3959 -9570 -3968
-9616 -22 -115 82 -235 205 -235 20 0 9478 3199 9732 3292 67 24 119 65 143
112 25 48 21 135 -8 184 -35 59 -1730 1891 -1785 1930 -90 62 43 102 -1949
-578 -983 -336 -1789 -609 -1790 -608 -2 2 335 784 747 1738 704 1627 751
1739 752 1795 1 43 -5 71 -19 97 -11 20 -414 462 -895 983 -649 701 -886 951
-916 965 -54 27 -127 26 -182 -1z"/>
<path d="M9424 9396 c-189 -36 -346 -173 -412 -360 -33 -95 -35 -239 -3 -337
43 -135 146 -255 273 -318 332 -167 726 38 780 406 53 366 -273 677 -638 609z"/>
</g>
</svg>
